<svg width="100%" height="100%" viewBox="0 0 647 171" version="1.1" xmlns="http://www.w3.org/2000/svg" xml:space="preserve" fill-rule="evenodd" clip-rule="evenodd" stroke-linejoin="round" stroke-miterlimit="2"><path d="M490.819 69.248c15.568-25.28 46.706-25.28 62.274-12.64 15.57 12.64 15.57 37.92 0 63.202-10.898 18.958-38.922 37.919-62.274 50.56-23.354-12.641-51.377-31.602-62.275-50.56-15.569-25.282-15.569-50.562 0-63.201 15.568-12.64 46.706-12.64 62.275 12.64z" fill="#fff"/><path d="M69.28 168.154h63.011v-8.104c-9.725 0-14.588-2.634-20.869-11.346l-35.051-49.64 19.653-18.437c9.32-8.712 16.006-11.752 26.34-11.752v-8.104H67.05v8.104c13.372 0 17.627.81 17.627 3.242 0 2.837-5.47 8.915-19.45 22.085l-19.451 18.437V-.012L.595 7.688v7.496c16.411 0 17.424 2.026 17.424 35.254v85.907c0 19.247-3.039 23.3-18.032 23.705v8.104h59.77v-8.104c-11.549 0-13.98-4.255-13.98-25.124v-7.902l10.13-9.725 15.399 23.098c5.673 8.307 9.725 15.398 9.725 17.019 0 2.026-3.04 2.634-11.752 2.634v8.104zm156.212-53.084c0 13.98-2.026 23.706-6.484 31-4.255 7.294-10.333 10.94-18.437 10.94-14.79 0-21.274-11.75-21.274-38.9V60.77h-45.385v8.104C150.121 70.7 151.134 71.712 151.134 94v27.352c0 14.79 2.836 25.53 8.712 33.431 7.497 10.13 18.843 15.398 33.026 15.398 15.6 0 29.175-6.686 36.064-17.83h.81l2.23 18.033 40.319-2.431v-7.902c-13.373 0-15.804-1.216-17.222-8.104-1.013-4.458-1.418-13.373-1.418-29.784V60.77h-45.79v8.104c16.411 1.621 17.627 3.242 17.627 25.124v21.071zm146.892 55.11l38.496-2.228v-7.902c-11.55 0-13.778-1.216-14.993-8.307-1.013-5.673-1.419-15.804-1.419-35.862V-.012l-51.26 8.104v6.89c14.183 0 20.869 2.43 22.084 8.104.81 3.444 1.216 16.006 1.216 31.81v17.221h-.81c-7.7-9.725-18.235-13.372-31.607-13.372-29.176 0-51.26 24.313-51.26 56.528s21.679 54.907 52.475 54.907c14.588 0 26.947-5.065 36.267-14.993h.81v14.993zm-6.281-52.273c0 13.777-1.621 22.085-5.47 27.96-5.066 7.902-13.778 12.765-22.693 12.765-15.6 0-24.313-15.804-24.313-43.764 0-27.555 8.712-42.75 24.516-42.75 8.712 0 16.614 4.254 21.476 11.953 4.255 6.686 6.484 15.804 6.484 25.934v7.902zm215.394 43.356c6.484 5.876 17.02 9.118 28.568 9.118 22.287 0 36.875-12.36 36.875-31 0-14.588-8.712-24.92-30.594-36.672-15.196-8.104-21.476-14.385-21.476-21.882 0-6.686 4.862-11.143 12.359-11.143 9.32 0 15.398 6.28 21.68 21.679h7.9V60.769h-5.267l-3.647 4.862c-6.078-4.255-14.993-6.888-23.3-6.888-18.843 0-33.026 13.372-33.026 31.404 0 13.778 8.307 23.908 28.771 35.052 14.993 8.104 21.477 14.993 21.477 22.49 0 7.293-5.876 11.75-15.804 11.75-13.777 0-22.084-8.711-26.744-27.96h-8.51v36.876h6.28l4.458-7.092z" fill="#fff" fill-rule="nonzero"/></svg>