<?xml version="1.0" encoding="UTF-8" standalone="no"?>
<svg
   width="554.84119"
   height="448.3605"
   viewBox="0 0 554.84119 448.3605"
   version="1.1"
   xml:space="preserve"
   style="clip-rule:evenodd;fill-rule:evenodd;stroke-linejoin:round;stroke-miterlimit:2"
   id="svg2"
   sodipodi:docname="logo.svg"
   inkscape:export-filename="favicon.png"
   inkscape:export-xdpi="118.6637"
   inkscape:export-ydpi="118.6637"
   xmlns:inkscape="http://www.inkscape.org/namespaces/inkscape"
   xmlns:sodipodi="http://sodipodi.sourceforge.net/DTD/sodipodi-0.dtd"
   xmlns="http://www.w3.org/2000/svg"
   xmlns:svg="http://www.w3.org/2000/svg"><defs
   id="defs2" /><sodipodi:namedview
   id="namedview2"
   pagecolor="#ffffff"
   bordercolor="#000000"
   borderopacity="0.25"
   inkscape:showpageshadow="2"
   inkscape:pageopacity="0.0"
   inkscape:pagecheckerboard="0"
   inkscape:deskcolor="#d1d1d1" />
    
    <g
   id="g2"
   transform="translate(0,0.00299826)"
   style="fill:#ffffff;fill-opacity:1"><path
     d="M 0,65.107 C 0,47.839 6.86,31.278 19.07,19.067 31.281,6.857 47.842,-0.003 65.11,-0.003 h 0.002 c 36.09,0 65.346,29.256 65.346,65.346 v 317.713 c 0,17.318 -6.879,33.926 -19.125,46.171 -12.245,12.246 -28.853,19.125 -46.171,19.125 h -0.001 c -35.987,0 -65.16,-29.173 -65.16,-65.16 C 0.001,298.138 0,150.136 0,65.107 Z"
     style="fill:#ffffff;fill-opacity:1"
     id="path1" /><path
     d="m 489.887,224.178 c 78.407,47.195 78.407,141.59 39.201,188.784 -39.2,47.194 -117.612,47.194 -196.019,0 C 274.26,379.922 215.457,294.97 176.251,224.178 215.457,153.385 274.261,68.434 333.069,35.397 c 78.407,-47.196 156.818,-47.196 196.02,0 39.205,47.195 39.205,141.587 -39.202,188.781 z"
     style="fill:#ffffff;fill-opacity:1"
     id="path2" /></g>
</svg>
